<?xml version="1.0" encoding="UTF-8" standalone="no"?>
<svg
   xmlns:dc="http://purl.org/dc/elements/1.1/"
   xmlns:cc="http://creativecommons.org/ns#"
   xmlns:rdf="http://www.w3.org/1999/02/22-rdf-syntax-ns#"
   xmlns:svg="http://www.w3.org/2000/svg"
   xmlns="http://www.w3.org/2000/svg"
   viewBox="0 0 1635.4399 1699.6"
   height="1699.6"
   width="1635.4399"
   opacity="0.21"
   xml:space="preserve"
   id="svg2"
   version="1.1"><metadata
     id="metadata8"><rdf:RDF><cc:Work
         rdf:about=""><dc:format>image/svg+xml</dc:format><dc:type
           rdf:resource="http://purl.org/dc/dcmitype/StillImage" /></cc:Work></rdf:RDF></metadata><defs
     id="defs6" /><g
     transform="matrix(1.3333333,0,0,-1.3333333,0,1699.6)"
     id="g10"><g
       transform="scale(0.1)"
       id="g12"><path
         id="path14"
         style="fill:#ffffff;fill-opacity:1;fill-rule:nonzero;stroke:none"
         d="M 12265.8,0 H 0 V 12747 H 12265.8 V 0" /><path
         id="path16"
         style="fill:#D0D6B5;fill-opacity:1;fill-rule:nonzero;stroke:none"
         d="M 10137.2,907.699 9842.53,1077.8 10137.2,1248 h 1804.1 l 294.6,-170.2 -294.6,-169.999 z M 9827.58,1444 l 902.02,1562.36 294.7,170.09 v -340.17 l -902.1,-1562.48 -294.61,-170 z m -14.93,40 -874.85,1515.3 1749.7,-0.03 z m -14.95,-380.3 -294.66,170.2 -902.05,1562.38 0.01,340.17 294.6,-170.08 L 9797.7,1444 Z M 9488.13,907.801 H 7683.96 l -294.6,169.999 294.6,170.2 h 1804.19 l 294.6,-170.1 z M 7374.41,1444 l 902.07,1562.36 294.63,170.11 V 2836.3 L 7669.05,1273.8 7374.42,1103.7 Z m -14.95,40 -874.82,1515.25 h 1749.69 z m -14.93,-380.3 -294.63,170.1 -902.06,1562.48 v 340.19 l 294.6,-170.08 902.09,-1562.49 z M 7034.94,907.699 H 6132.9 v 0.102 H 5230.81 L 4936.2,1077.8 5230.82,1248 h 902.08 v -0.1 l 902.06,0.1 294.63,-170.2 z M 4921.25,1444 l 902.08,1562.36 294.62,170.11 V 2836.3 L 5215.89,1273.8 4921.25,1103.7 Z m -14.95,40 -874.83,1515.25 h 1749.68 z m -14.93,-380.3 -294.61,170.1 -902.06,1562.46 v 340.21 l 294.59,-170.1 902.09,-1562.47 z M 4581.81,907.699 H 2777.67 l -294.62,170.101 294.58,170.1 1804.17,0.1 294.63,-170.2 z M 2468.1,1443.9 3370.16,3006.36 3664.8,3176.47 V 2836.26 L 2762.72,1273.8 2468.1,1103.7 Z m -14.97,40.1 -874.8,1515.29 h 1749.65 z m -14.9,-380.3 -294.6,170.1 -902.11,1562.46 0.01,340.19 294.65,-170.09 902.05,-1562.46 z M 2128.7,907.801 324.543,907.699 29.9023,1077.8 324.531,1248 H 2128.64 l 294.63,-170.2 z M 14.9531,1444 917.02,3006.36 1211.64,3176.45 V 2836.28 L 309.563,1273.8 14.9609,1103.8 Z M 917.012,3398.35 14.9531,4960.77 14.9609,5300.96 309.563,5130.87 1211.64,3568.43 v -340.2 z M 407.871,6373.48 h -0.012 l 509.161,881.92 294.62,170.08 v -340.2 l -410.964,-711.8 h 0.015 L 309.563,5522.82 14.9609,5352.74 14.9531,5692.92 Z M 917.012,7647.35 14.9531,9209.77 14.9609,9549.99 309.563,9379.89 1211.64,7817.43 v -340.18 z m 0.008,3857.05 294.62,170.1 v -340.2 L 309.563,9771.84 14.9609,9601.77 14.9531,9941.96 Z m 309.55,-210.2 874.84,-1515.27 H 351.711 Z m 14.96,380.3 294.65,-170.1 902.05,-1562.48 v -340.17 l -294.6,170.07 -902.11,1562.48 z m 309.57,196 h 1804.15 l 294.61,-170.1 -294.62,-170.1 H 1551.07 l -294.61,170.1 z M 3664.8,11334.3 2762.72,9771.84 2468.1,9601.75 v 340.17 l 902.06,1562.48 294.64,170.1 z m 14.95,-40.1 874.83,-1515.25 H 2804.89 Z m 14.95,380.3 294.59,-170.1 902.09,-1562.5 -0.01,-340.15 -294.61,170.09 -902.06,1562.46 z m 309.58,196 h 1804.11 l 294.63,-170.1 -294.59,-170.1 -1804.14,-0.1 -294.66,170.2 z m 2113.67,-536.2 -902.06,-1562.46 -294.64,-170.09 v 340.23 l 902.08,1562.42 294.62,170.1 z m 14.95,-40.1 v 0 h 0.02 L 7007.74,9778.95 H 6132.9 v -0.02 h -874.83 z m 14.94,380.3 294.6,-170.1 902.09,-1562.48 v -340.17 l -294.63,170.09 -902.06,1562.46 z m 309.56,196 h 1804.14 l 294.62,-170.1 -294.57,-170.1 -1804.17,-0.1 -294.64,170.2 z m 2113.71,-536.2 -902.06,-1562.46 -294.63,-170.09 -0.01,340.21 902.07,1562.44 294.63,170.1 z m 14.97,-40.1 874.81,-1515.27 H 7711.23 Z m 14.92,380.3 294.6,-170.1 902.1,-1562.44 v -340.21 l -294.66,170.13 -902.05,1562.42 z m 309.51,195.9 1804.19,0.1 294.6,-170.1 -294.6,-170.2 H 8910.57 l -294.63,170.2 z m 2113.79,-536.1 -902.1,-1562.46 -294.61,-170.07 -0.01,340.19 902.02,1562.44 294.7,170.1 z m 14.9,-40.1 874.8,-1515.27 h -1749.7 z m 15,380.3 294.6,-170.1 902.1,-1562.48 v -340.17 l -294.6,170.07 -902.1,1562.48 z m 1196.6,-2464.69 -902,-1562.46 -294.6,-170.1 -0.1,340.22 902.1,1562.42 294.7,170.1 z m -902,-1954.45 509.1,-881.88 v 0 l 393,-680.56 v -340.2 l -294.6,170.08 -491.2,850.68 v 0 l -410.9,711.78 v 340.22 z m 902,-2294.55 -902,-1562.46 -294.6,-170.1 -0.1,340.2 902.1,1562.4 294.7,170.11 z M 11039.2,2796.2 11914,1280.9 h -1749.7 z m -309.6,602.15 -902.02,1562.42 0.01,340.19 294.61,-170.09 902.1,-1562.44 v -340.2 z m -1819.09,-25.92 1804.19,0.02 294.6,-170.1 -294.6,-170.12 H 8910.57 l -294.63,170.12 z M 8601,3568.41 9503.07,5130.87 9797.7,5300.96 V 4960.75 L 8895.64,3398.35 8601,3228.23 Z m -14.96,40.09 -874.85,1515.3 1749.69,-0.02 z m 0.04,-812.3 874.81,-1515.3 H 7711.23 Z m -309.57,602.11 -902.1,1562.44 0.01,340.2 294.65,-170.1 902.04,-1562.42 v -340.2 z M 6457.4,3372.45 h 1804.14 l 294.62,-170.1 -294.57,-170.08 -1804.17,-0.04 -294.64,170.12 z m -309.56,195.98 902.06,1562.44 294.63,170.09 v -340.19 l -902.06,-1562.42 -294.63,-170.1 z m -14.93,40.07 -0.01,0.02 v 0.04 l -0.03,-0.06 -874.82,1515.3 874.85,-0.02 h 874.86 z m -0.01,-812.36 v 0.02 l 0.02,0.04 874.82,-1515.3 H 6132.9 v 0 h -874.83 z m -309.53,602.15 -902.12,1562.46 v 340.21 l 294.66,-170.11 902.04,-1562.4 v -340.22 z m -1819.09,-25.82 1804.11,-0.02 294.63,-170.1 -294.59,-170.08 -1804.14,-0.04 -294.66,170.12 z m 592.48,1758.38 294.61,170.11 v -340.21 l -902.06,-1562.4 -294.61,-170.1 -0.01,340.18 z M 3679.75,2796.2 4554.58,1280.9 H 2804.89 Z m -309.59,602.15 -902.06,1562.42 v 340.19 l 294.59,-170.07 902.11,-1562.46 v -340.18 z m -1819.06,-25.9 h 1804.15 l 294.61,-170.1 -294.62,-170.1 H 1551.07 l -294.61,170.1 z m 592.5,1758.4 294.63,170.11 -0.01,-340.15 -902.06,-1562.46 -294.63,-170.1 -0.02,340.2 z M 1226.57,2796.2 2101.41,1280.9 H 351.711 Z M 2101.43,5123.74 1226.56,3608.5 351.738,5123.74 Z m 27.21,373.22 294.63,-170.12 L 2128.7,5156.77 324.543,5156.73 29.9023,5326.84 324.531,5496.96 Z M 2101.43,9372.74 1226.56,7857.51 351.738,9372.78 Z m 27.27,33.03 -1804.157,-0.02 -294.6407,170.1 294.6287,170.11 H 2128.64 l 294.63,-170.11 z m 309.52,-195.96 -902.06,-1562.46 -294.63,-170.1 -0.02,340.22 902.09,1562.42 294.63,170.1 z m 14.97,-40.11 874.84,-1515.3 -1749.69,0.04 z m -0.06,812.3 -874.8,1515.3 h 1749.65 z m 309.56,-602.11 902.11,-1562.42 v -340.22 l -294.64,170.14 -902.06,1562.38 v 340.22 z m 1819.12,25.86 H 2777.67 l -294.62,170.1 294.58,170.08 1804.17,0.03 294.63,-170.11 z m 309.56,-196 -902.06,-1562.4 -294.61,-170.1 -0.01,340.22 902.07,1562.42 294.61,170.08 z m 889.77,-1555.35 -1749.68,0.04 874.83,1515.26 z M 4906.3,9981.98 4031.47,11497.3 h 1749.68 z m 309.61,-602.13 902.04,-1562.38 v -340.22 l -294.58,170.08 -902.12,1562.42 v 340.22 z m 2128.62,-170.08 -902.06,-1562.42 -294.63,-170.1 v 340.22 l 902.06,1562.42 294.63,170.1 z m 14.93,772.21 -874.82,1515.32 h 1749.69 z m 0.01,-812.28 874.83,-1515.26 H 6484.61 Z m 309.6,210.15 902.04,-1562.38 v -340.22 l -294.6,170.08 -902.1,1562.44 0.01,340.2 z m 1819.06,25.92 H 7683.96 l -294.6,170.08 294.6,170.11 h 1804.19 l 294.6,-170.07 z m 309.57,-196 L 8895.64,7647.35 8601,7477.25 v 340.16 l 902.07,1562.48 294.63,170.1 z m -859.9,2287.53 h 1749.7 L 9812.65,9982.04 Z M 10687.5,7654.46 H 8937.79 l 874.86,1515.27 z m -565.3,1725.43 902.1,-1562.46 v -340.18 l -294.7,170.1 -902.02,1562.42 0.01,340.22 z m 15,25.86 -294.67,170.1 294.67,170.11 h 1804.1 l 294.6,-170.11 -294.6,-170.08 z m 902,-1548.24 -874.8,1515.27 1749.7,-0.04 z m -818.7,-1484.03 v 0 l 509.1,881.92 294.7,170.08 v -340.2 l -411,-711.8 v 0 l -491.1,-850.66 -294.61,-170.08 -0.01,340.18 z m -777.64,0 h 0.01 l -505.07,874.83 1749.7,-0.02 -505.1,-874.81 v 0 L 9812.65,5733 Z m 369.79,-1452.79 874.85,-1515.25 -1749.71,0.02 z m -1196.71,2530.67 294.57,170.07 1804.19,0.04 294.6,-170.11 -294.6,-170.1 H 8910.57 Z m 887.1,-1928.5 -491.11,850.62 h 0.01 l -410.95,711.8 0.01,340.2 294.6,-170.08 509.19,-881.92 h -0.02 l 392.93,-680.54 v -340.2 z m -1819.08,-25.92 h 1804.19 l 294.6,-170.1 -294.62,-170.09 H 7683.96 l -294.6,170.09 z m 902.08,2360.57 -874.85,1515.29 h 1749.69 z m 0.04,-812.31 387.81,-671.72 h -0.02 l 487.02,-843.59 -1749.66,0.02 487.04,843.57 h -0.01 z m -818.75,-671.72 h -0.02 l 509.17,881.88 294.63,170.12 v -340.16 l -410.96,-711.84 h 0.02 l -491.12,-850.66 -294.63,-170.1 -0.01,340.22 z m -407.87,-640.5 -369.78,640.5 h 0.01 l -505.05,874.81 1749.69,-0.04 -505.06,-874.77 h 0.01 z m 0.01,-812.29 874.83,-1515.29 -1749.69,0.02 z m -1196.69,2530.67 294.62,170.11 h 1804.14 l 294.62,-170.11 -294.57,-170.08 -1804.17,-0.02 z m 887.12,-1928.54 -491.12,850.66 h 0.02 l -410.96,711.8 v 340.22 l 294.6,-170.1 509.17,-881.92 h -0.01 l 392.93,-680.56 v -340.2 z m -917,1522.34 v 0.02 l 0.02,0.02 387.81,-671.72 h -0.01 l 487.02,-843.53 H 6132.9 v -0.04 h -874.83 l 487.05,843.57 h -0.02 z m 874.84,2327.62 -874.83,-1515.23 -0.01,0.02 -0.03,-0.06 -874.83,1515.29 h 874.86 v -0.02 z m -2086.49,-3679.8 392.91,680.5 h -0.02 l 509.19,881.92 294.62,170.1 v -340.18 l -410.97,-711.84 h 0.02 l -491.11,-850.66 -294.64,-170.1 z m -384.75,680.5 h 0.01 l -505.04,874.77 h 1749.68 l -505.06,-874.77 h 0.01 l -369.8,-640.5 z m 369.79,-1452.79 874.85,-1515.29 -1749.68,0.02 z m -1196.66,2530.67 294.65,170.11 h 1804.11 l 294.63,-170.11 -294.59,-170.08 -1804.14,-0.02 z m 887.13,-1928.54 -491.13,850.66 h 0.01 l -410.94,711.78 v 340.22 l 294.59,-170.08 509.16,-881.92 h -0.01 l 392.94,-680.58 -0.01,-340.16 z M 2804.92,9372.8 4554.58,9372.78 3679.77,7857.51 Z M 4067.57,6373.48 h -0.01 l 487.02,-843.53 H 2804.89 l 487.03,843.53 h -0.01 l 387.84,671.72 z M 2468.1,5692.9 l 392.93,680.58 h -0.01 l 509.14,881.88 294.64,170.12 v -340.22 l -410.95,-711.78 h 0.02 l -491.15,-850.66 -294.62,-170.1 z m -14.97,40.1 -369.77,640.48 h 0.01 L 1578.3,7248.31 H 3327.98 L 2822.9,6373.48 h 0.02 z m 0.06,-812.31 874.83,-1515.29 -1749.68,0.02 z m -1196.73,2530.67 294.64,170.11 h 1804.15 l 294.61,-170.11 -294.62,-170.08 H 1551.07 Z m -14.94,-366.1 0.01,340.22 294.65,-170.12 509.14,-881.88 h -0.01 l 392.92,-680.56 v -340.2 l -294.6,170.08 -491.16,850.68 h 0.01 z M 4554.6,5123.78 3679.77,3608.5 2804.92,5123.8 Z m -1776.93,32.97 -294.62,170.09 294.58,170.08 1804.17,0.04 294.63,-170.12 -294.62,-170.09 z m 2453.14,0 -294.61,170.09 294.62,170.1 h 902.08 v -0.02 l 902.06,0.02 294.63,-170.1 -294.65,-170.11 H 6132.9 v 0.02 z m 6683.29,-33.01 -874.9,-1515.24 -874.8,1515.24 z m -1776.9,32.99 -294.67,170.11 294.67,170.12 h 1804.1 l 294.6,-170.12 -294.6,-170.07 z m 1776.8,373.16 -1749.7,0.02 487.1,843.57 v 0 l 387.8,671.72 387.8,-671.72 v 0 z m -4879.04,4216.07 294.63,-170.11 -294.65,-170.1 H 6132.9 v 0.02 h -902.09 l -294.61,170.08 294.62,170.11 h 902.08 v -0.01 z M 838.738,6373.48 1226.57,7045.2 1614.38,6373.48 h -0.01 l 487.04,-843.59 -1749.699,0.02 487.051,843.57 z M 11348.8,3006.36 12250.9,1443.9 v -340.2 l -294.6,170.1 -902.1,1562.46 v 340.19 z M 11409,0 h 38.1 l 509.1,881.902 294.7,170.098 -0.1,-340.199 L 11839.9,0 h 38.1 l 387.8,671.602 V 1484.1 1484 L 11391,2999.29 h 874.8 v 32.96 h -902.1 l -294.6,170.1 294.6,170.1 h 902.1 v 32.96 l -874.8,0.01 874.8,1515.23 v 812.41 -0.06 l -369.8,640.48 v 0 l -505.1,874.83 h 874.9 v 32.97 h -902.1 l -294.6,170.08 294.6,170.11 h 902.1 v 32.95 l -874.8,0.02 874.8,1515.22 v 812.41 -0.07 l -874.8,1515.3 h 874.8 v 33 h -902.1 l -294.6,170.1 294.6,170.1 h 902.1 v 32.9 H 11391 l 487,843.6 h -38.1 l -491.1,-850.6 -294.6,-170.1 -0.1,340.2 393,680.5 h -38.1 l -369.8,-640.5 -369.8,640.5 h -38.1 l 393,-680.6 v -340.2 l -294.7,170.2 -491.1,850.6 h -38.1 l 487.1,-843.6 -1749.71,0.1 487.03,843.5 h -38.05 L 8895.64,11896.4 8601,11726.2 v 340.2 l 392.93,680.6 h -38.11 l -369.78,-640.5 -369.78,640.5 h -38.07 l 392.92,-680.6 v -340.2 l -294.6,170.1 -491.15,850.7 h -38.09 l 487.03,-843.6 H 6484.61 l 487.05,843.6 h -38.08 l -491.11,-850.6 -294.63,-170.1 v 340.1 l 392.92,680.6 h -38.05 l -369.8,-640.5 h -0.01 v 0.1 l -0.03,-0.1 -369.77,640.5 h -38.06 l 392.91,-680.5 v -340.3 l -294.58,170.1 -491.17,850.7 h -38.11 l 487.05,-843.6 H 4031.46 l 487.03,843.6 h -38.06 l -491.12,-850.6 -294.61,-170.1 -0.01,340.1 392.92,680.6 h -38.07 l -369.77,-640.5 -369.78,640.5 h -38.12 l 392.93,-680.6 v -340.1 l -294.64,170.1 -491.13,850.6 h -38.04 l 487.03,-843.6 H 1578.34 l 487.04,843.6 h -38.11 l -491.11,-850.6 -294.63,-170.1 -0.02,340.2 392.93,680.5 h -38.07 l -369.81,-640.5 -369.783,640.5 h -38.054 l 392.917,-680.6 v -340.2 L 917.012,11896.4 425.891,12747 H 387.82 L 874.844,11903.4 0,11903.5 v -33.1 l 902.063,0.1 294.617,-170.1 -294.617,-170.2 H 0 v -32.9 H 874.871 L 0.0195313,9982.04 0,9982.08 V 9169.7 l 0.0195313,0.03 L 874.844,7654.46 H 0 v -33.01 l 902.063,0.02 294.617,-170.11 -294.617,-170.1 H 0 v -32.96 l 874.871,-0.01 -505.074,-874.81 h 0.016 L 0.0195313,5733 0,5733.04 v -812.39 l 0.0195313,0.04 L 874.844,3405.44 0,3405.45 v -33.01 l 902.063,0.01 294.617,-170.1 -294.617,-170.12 H 0 v -32.94 L 874.871,2999.27 0.0195313,1484 0,1484.1 V 671.699 H 0.0195313 L 387.844,0 h 38.047 L 14.9531,711.801 14.9609,1052 309.563,881.902 818.723,0 h 38.062 L 351.738,874.801 2101.43,874.699 1596.37,0 h 38.05 L 2143.6,881.902 2438.23,1052 2438.22,711.801 2027.27,0 h 38.11 L 2453.19,671.699 2840.99,0 h 38.06 L 2468.1,711.801 V 1052 L 2762.69,881.902 3271.88,0 h 38.11 L 2804.92,874.801 H 4554.58 L 4049.54,0 h 38.05 L 4596.76,881.902 4891.37,1052 V 711.699 L 4480.43,0 h 38.06 L 4906.29,671.699 5294.09,0 h 38.12 L 4921.25,711.699 V 1052 L 5215.91,881.801 5725.05,0 h 38.05 l -505.06,874.801 h 874.86 v 0 h 874.84 L 6502.69,0 h 38.05 L 7049.9,881.902 7344.53,1052 V 711.801 L 6933.58,0 h 38.07 L 7359.47,671.699 7747.28,0 h 38.09 L 7374.41,711.801 7374.42,1052 7669.07,881.801 8178.21,0 h 38.05 L 7711.19,874.801 H 9460.88 L 8955.82,0 h 38.1 L 9503.07,881.902 9797.7,1052 V 711.801 L 9386.76,0 h 38.05 L 9812.65,671.699 10200.5,0 h 38 L 9827.58,711.801 9827.59,1052 10122.2,881.902 10631.3,0 h 38.1 l -505,874.801 1749.7,-0.102 L 11409,0" /></g></g></svg>